<?xml version="1.0" encoding="utf-8"?>
<!-- Generator: Adobe Illustrator 16.0.0, SVG Export Plug-In . SVG Version: 6.00 Build 0)  -->
<!DOCTYPE svg PUBLIC "-//W3C//DTD SVG 1.1//EN" "http://www.w3.org/Graphics/SVG/1.1/DTD/svg11.dtd">
<svg version="1.1" id="Layer_1" xmlns="http://www.w3.org/2000/svg" xmlns:xlink="http://www.w3.org/1999/xlink" x="0px" y="0px"
	 width="512px" height="512px" viewBox="0 0 512 512" enable-background="new 0 0 512 512" xml:space="preserve">
<g>
	<g>
		<path fill="#FA9E1B" d="M511.609,197.601c-0.001-0.77-0.174-1.933-0.473-2.603c-0.787-2.854-2.536-5.461-5.153-7.281
			l-73.292-50.948V82.153c0-7.24-5.872-13.112-13.112-13.112H335.26l-71.742-49.878c-4.484-3.121-10.438-3.134-14.936-0.026
			l-72.206,49.904h-83.95c-7.242,0-13.112,5.872-13.112,13.112v53.973L5.666,187.027c-3.623,2.504-5.583,6.507-5.645,10.6
			C0.017,197.704,0,197.777,0,197.857l0.391,284.235c0.005,3.478,1.391,6.811,3.852,9.267c2.458,2.45,5.788,3.826,9.26,3.826
			c0.007,0,0.012,0,0.018,0l485.385-0.667c7.24-0.01,13.104-5.889,13.094-13.13L511.609,197.601z M432.69,168.708l41.897,29.118
			l-41.897,29.128V168.708z M256.015,45.884l33.31,23.156h-66.812L256.015,45.884z M105.538,95.265h300.928v149.921L305.43,315.428
			l-41.193-31.953c-0.064-0.051-0.119-0.082-0.182-0.127c-4.604-3.453-11.116-3.58-15.894,0.127l-41.493,32.185l-101.13-69.893
			V95.265z M79.314,168.003v59.64l-43.146-29.819L79.314,168.003z M26.258,222.867l158.669,109.654L26.578,455.346L26.258,222.867z
			 M51.875,468.909l204.324-158.484L459.79,468.348L51.875,468.909z M327.144,332.271L485.42,222.235l0.32,233.059L327.144,332.271z
			"/>
	</g>
</g>
<g>
	<g>
		<path fill="#FA9E1B" d="M344.77,147.713H167.234c-7.24,0-13.112,5.872-13.112,13.112c0,7.24,5.872,13.112,13.112,13.112H344.77
			c7.242,0,13.112-5.872,13.112-13.112C357.882,153.585,352.012,147.713,344.77,147.713z"/>
	</g>
</g>
<g>
	<g>
		<path fill="#FA9E1B" d="M344.77,215.895H167.234c-7.24,0-13.112,5.872-13.112,13.112c0,7.24,5.872,13.112,13.112,13.112H344.77
			c7.242,0,13.112-5.872,13.112-13.112C357.882,221.767,352.012,215.895,344.77,215.895z"/>
	</g>
</g>
</svg>
