<?xml version="1.0" encoding="utf-8"?>
<!-- Generator: Adobe Illustrator 16.0.0, SVG Export Plug-In . SVG Version: 6.00 Build 0)  -->
<!DOCTYPE svg PUBLIC "-//W3C//DTD SVG 1.1//EN" "http://www.w3.org/Graphics/SVG/1.1/DTD/svg11.dtd">
<svg version="1.1" id="Layer_1" xmlns="http://www.w3.org/2000/svg" xmlns:xlink="http://www.w3.org/1999/xlink" x="0px" y="0px"
	 width="28px" height="33px" viewBox="0 0 28 33" enable-background="new 0 0 28 33" xml:space="preserve">
<path fill="#FFFFFF" d="M19,0H9C4.029,0,0,4.029,0,9v15c0,4.971,4.029,9,9,9h10c4.97,0,9-4.029,9-9V9C28,4.029,23.97,0,19,0z
	 M26,23.091C26,27.459,22.545,31,18.285,31H9.714C5.454,31,2,27.459,2,23.091V9.909C2,5.541,5.454,2,9.714,2h8.571
	C22.545,2,26,5.541,26,9.909V23.091z"/>
</svg>
