<?xml version="1.0" encoding="utf-8"?>
<!-- Generator: Adobe Illustrator 16.0.0, SVG Export Plug-In . SVG Version: 6.00 Build 0)  -->
<!DOCTYPE svg PUBLIC "-//W3C//DTD SVG 1.1//EN" "http://www.w3.org/Graphics/SVG/1.1/DTD/svg11.dtd">
<svg version="1.1" id="Layer_1" xmlns="http://www.w3.org/2000/svg" xmlns:xlink="http://www.w3.org/1999/xlink" x="0px" y="0px"
	 width="512px" height="512px" viewBox="0 0 512 512" enable-background="new 0 0 512 512" xml:space="preserve">
<g>
	<g>
		<path fill="#FA9E1B" d="M492.557,400.56L392.234,300.238c-11.977-11.975-31.458-11.975-43.436,0l-26.088,26.088
			c-8.174,8.174-10.758,19.845-7.773,30.24l-9.842,9.844c-0.004,0.003-0.006,0.005-0.009,0.008
			c-6.989,6.998-50.523-3.741-103.145-56.363c-52.614-52.613-63.356-96.139-56.366-103.142c0-0.002,0.002-0.002,0.002-0.002
			l9.852-9.851c2.781,0.799,5.651,1.207,8.523,1.207c7.865,0,15.729-2.993,21.718-8.98l26.088-26.088
			c11.975-11.975,11.975-31.458,0-43.434L111.436,19.441c-5.8-5.8-13.513-8.994-21.716-8.994c-8.205,0-15.915,3.196-21.716,8.994
			l-26.09,26.09c-8.174,8.174-10.758,19.846-7.773,30.241c0,0-8.344,8.424-8.759,8.956c-27.753,30.849-32.96,79.418-14.561,137.487
			c18.017,56.857,56.857,117.088,109.367,169.596c52.508,52.508,112.739,91.348,169.596,109.366
			c22.84,7.237,44.207,10.823,63.609,10.823c31.813,0,58.338-9.648,77.351-28.66l5.474-5.474c2.74,0.788,5.603,1.213,8.532,1.213
			c8.205,0,15.917-3.196,21.716-8.994l26.09-26.09C504.531,432.02,504.531,412.536,492.557,400.56z M89.72,41.157l100.324,100.325
			l-26.074,26.102c0,0-0.005-0.005-0.014-0.014l-0.375-0.375l-49.787-49.787L63.631,67.247L89.72,41.157z M409.029,461.623
			c-0.002,0.002-0.003,0.003-0.005,0.005c-22.095,22.091-61.146,25.74-109.962,10.271
			c-52.251-16.559-108.064-52.715-157.155-101.807C92.814,321,56.658,265.189,40.101,212.936
			c-15.47-48.817-11.821-87.87,10.275-109.967l0.002-0.002l2.77-2.77l77.857,77.856l-7.141,7.141
			c-0.005,0.005-0.009,0.011-0.015,0.017c-29.585,29.622,5.963,96.146,56.378,146.563c37.734,37.733,84.494,67.14,118.05,67.14
			c11.285,0,21.076-3.325,28.528-10.778c0.003-0.003,0.005-0.005,0.009-0.008l7.133-7.133l77.856,77.855L409.029,461.623z
			 M444.752,448.368L344.428,348.044l26.088-26.088L470.84,422.278C470.84,422.278,444.761,448.377,444.752,448.368z"/>
	</g>
</g>
<g>
	<g>
		<path fill="#FA9E1B" d="M388.818,123.184c-29.209-29.209-68.042-45.294-109.344-45.293c-8.481,0-15.356,6.875-15.356,15.356
			s6.876,15.356,15.356,15.356c33.1-0.002,64.219,12.89,87.627,36.297c23.406,23.406,36.295,54.525,36.295,87.624
			c0,8.481,6.875,15.358,15.355,15.358s15.356-6.875,15.356-15.354C434.109,191.224,418.023,152.393,388.818,123.184z"/>
	</g>
</g>
<g>
	<g>
		<path fill="#FA9E1B" d="M443.895,68.107C399.972,24.186,341.578-0.002,279.468,0c-8.481,0-15.356,6.876-15.356,15.356
			c0,8.481,6.877,15.356,15.356,15.356c53.907-0.002,104.588,20.992,142.709,59.111c38.118,38.118,59.111,88.799,59.11,142.706
			c0,8.481,6.875,15.356,15.355,15.356s15.356-6.875,15.356-15.354C512.001,170.419,487.813,112.027,443.895,68.107z"/>
	</g>
</g>
<g>
	<g>
		<path fill="#FA9E1B" d="M333.737,178.26c-14.706-14.706-33.466-22.477-54.257-22.477c0,0-0.004,0-0.006,0
			c-8.48,0.002-15.355,6.876-15.354,15.358c0.002,8.481,6.878,15.356,15.357,15.354c0.002,0,0.004,0,0.006,0
			c12.644,0,23.593,4.536,32.539,13.481c8.818,8.82,13.48,20.075,13.479,32.544c-0.002,8.481,6.875,15.356,15.354,15.358h0.002
			c8.48,0,15.354-6.875,15.355-15.354C356.215,211.732,348.444,192.968,333.737,178.26z"/>
	</g>
</g>
</svg>
